<svg class="icon" viewBox="0 0 1024 1024" version="1.1" xmlns="http://www.w3.org/2000/svg" p-id="4359" height="128" width="128"><path d="M486.976 763.264c7.36-13.312 16.896-26.944 28.736-40.896 11.84-13.952 39.936-42.304 84.224-84.992 44.352-42.688 75.008-75.328 92.032-98.112 25.664-34.24 44.416-67.072 56.256-98.368 11.84-31.296 17.728-64.256 17.728-98.88 0-60.864-20.672-111.744-62.016-152.64C662.656 148.48 597.76 128 519.488 128c-71.424 0-130.944 18.688-178.56 56S265.024 282.816 256 368.512L407.488 384c2.88-45.44 13.696-77.952 32.448-97.536C458.688 266.88 483.968 257.088 515.712 257.088c32.128 0 67.2 1.984 84.032 19.584C616.576 294.4 625.024 319.68 625.024 352.512c0 29.696-9.664 59.776-28.992 90.24-14.336 22.016-53.184 64-116.48 125.888-78.656 76.608-131.328 138.048-158.016 184.384C294.848 799.424 261.312 846.656 256 896l512 0-1.984-132.736L486.976 763.264z" p-id="4360"></path></svg>