<svg class="icon" viewBox="0 0 1024 1024" version="1.1" xmlns="http://www.w3.org/2000/svg" p-id="4608" height="128" width="128"><path d="M665.6 126.8c36.4 42.3 55 100.2 55 175.1 0 94.2-33.9 157-100.7 188.4 35.6 15.7 63.5 38.6 82.1 70 20.3 32.6 30.5 74.9 30.5 125.6 0 79.7-19.5 144.9-58.4 195.6-40.6 51.9-94 78.5-160 78.5-62.6 0-113.4-22.9-151.5-68.8-42.3-50.7-66-125.6-71.1-222.2l100.7 0c1.7 55.5 13.5 99 37.2 129.2 21.2 27.8 49.1 42.3 83.8 42.3 38.1 0 68.6-15.7 90.6-45.9 19.5-27.8 29.6-61.6 29.6-102.6 0-49.5-11-85.7-31.3-108.7-20.3-24.2-49.9-35-88.9-35l-42.3 0L470.9 442l42.3 0c35.6 0 62.6-10.9 81.3-32.6 17.8-21.7 27.1-54.3 27.1-96.6s-8.5-73.7-24.5-95.4c-17.8-21.7-44-32.6-78.7-32.6-35.6 0-62.6 12.1-82.1 37.4-20.3 25.4-32.2 64-35.6 115.9l-97.4 0c5.1-86.9 27.1-154.6 67.7-202.9C409.1 86.9 458.2 64 517.5 64 578.5 64 628.4 84.5 665.6 126.8z" p-id="4609"></path></svg>