<?xml version="1.0" encoding="utf-8"?>
<svg version="1.1" xmlns:xlink="http://www.w3.org/1999/xlink" width="300px" height="154px" xmlns="http://www.w3.org/2000/svg">
  <g transform="matrix(1 0 0 1 -308 -1242 )">
    <path d="M 308 1242  L 608 1242  L 608 1396  L 308 1396  L 308 1242  " fill-rule="nonzero" fill="#cccccc" stroke="none" />
    <path d="M 319 1253  L 597 1253  L 597 1385  L 319 1385  L 319 1253  " fill-rule="nonzero" fill="#ffffff" stroke="none" />
    <path d="M 475.55 1288.2  C 469.082 1288.2  464 1283.118  464 1276.65  C 464 1270.182  469.082 1265.1  475.55 1265.1  C 482.018 1265.1  487.1 1270.182  487.1 1276.65  C 487.1 1283.118  482.018 1288.2  475.55 1288.2  " fill-rule="nonzero" fill="#cccccc" stroke="none" />
    <path d="M 323 1381  L 323 1312.8  L 390.5 1281.8  L 485 1342.808  L 539 1300.4  L 593 1342.808  L 593 1381  L 323 1381  " fill-rule="nonzero" fill="#169bd5" stroke="none" />
  </g>
</svg>