<?xml version="1.0" encoding="utf-8"?>
<svg version="1.1" xmlns:xlink="http://www.w3.org/1999/xlink" width="300px" height="161px" xmlns="http://www.w3.org/2000/svg">
  <g transform="matrix(1 0 0 1 -793 -1242 )">
    <path d="M 793 1242  L 1093 1242  L 1093 1403  L 793 1403  L 793 1242  " fill-rule="nonzero" fill="#cccccc" stroke="none" />
    <path d="M 804 1253  L 1082 1253  L 1082 1392  L 804 1392  L 804 1253  " fill-rule="nonzero" fill="#ffffff" stroke="none" />
    <path d="M 961.075 1290.3  C 954.313 1290.3  949 1284.987  949 1278.225  C 949 1271.463  954.313 1266.15  961.075 1266.15  C 967.837 1266.15  973.15 1271.463  973.15 1278.225  C 973.15 1284.987  967.837 1290.3  961.075 1290.3  " fill-rule="nonzero" fill="#cccccc" stroke="none" />
    <path d="M 808 1388  L 808 1315.95  L 875.5 1283.2  L 970 1345.818  L 1024 1302.85  L 1078 1345.818  L 1078 1388  L 808 1388  " fill-rule="nonzero" fill="#169bd5" stroke="none" />
  </g>
</svg>