<?xml version="1.0" encoding="utf-8"?>
<svg version="1.1" xmlns:xlink="http://www.w3.org/1999/xlink" width="40px" height="50px" xmlns="http://www.w3.org/2000/svg">
  <defs>
    <filter x="1685px" y="256px" width="40px" height="50px" filterUnits="userSpaceOnUse" id="filter1">
      <feOffset dx="1" dy="1" in="SourceAlpha" result="shadowOffsetInner" />
      <feGaussianBlur stdDeviation="2.5" in="shadowOffsetInner" result="shadowGaussian" />
      <feComposite in2="shadowGaussian" operator="atop" in="SourceAlpha" result="shadowComposite" />
      <feColorMatrix type="matrix" values="0 0 0 0 0  0 0 0 0 0  0 0 0 0 0  0 0 0 0.698039215686274 0  " in="shadowComposite" />
    </filter>
    <g id="widget2">
      <path d="M 1704 299.036928468354  C 1698.2 289.40734059591  1689.5 283.629587872444  1689.5 274  C 1689.5 268.985714285714  1692.4 260.5  1704 260.5  C 1715.6 260.5  1718.5 268.985714285714  1718.5 274  C 1718.5 283.629587872444  1709.8 289.40734059591  1704 299.036928468354  Z " fill-rule="nonzero" fill="#ec808d" stroke="none" />
      <path d="M 1704 300  C 1698 290  1689 284  1689 274  C 1689 268.8  1692 260  1704 260  C 1716 260  1719 268.8  1719 274  C 1719 284  1710 290  1704 300  Z M 1704 298.073856936707  C 1709.6 288.81468119182  1718 283.259175744887  1718 274  C 1718 269.171428571429  1715.2 261  1704 261  C 1692.8 261  1690 269.171428571429  1690 274  C 1690 283.259175744887  1698.4 288.81468119182  1704 298.073856936707  Z " fill-rule="nonzero" fill="#ffffff" stroke="none" />
    </g>
  </defs>
  <g transform="matrix(1 0 0 1 -1685 -256 )">
    <use xlink:href="#widget2" filter="url(#filter1)" />
    <use xlink:href="#widget2" />
  </g>
</svg>