<?xml version="1.0" encoding="utf-8"?>
<svg version="1.1" xmlns:xlink="http://www.w3.org/1999/xlink" width="15px" height="15px" xmlns="http://www.w3.org/2000/svg">
  <g transform="matrix(1 0 0 1 -2176 -261 )">
    <path d="M 2183.5 261  C 2187.7 261  2191 264.3  2191 268.5  C 2191 272.7  2187.7 276  2183.5 276  C 2179.3 276  2176 272.7  2176 268.5  C 2176 264.3  2179.3 261  2183.5 261  Z " fill-rule="nonzero" fill="#797979" stroke="none" />
    <path d="M 2183.5 261.5  C 2187.42 261.5  2190.5 264.58  2190.5 268.5  C 2190.5 272.42  2187.42 275.5  2183.5 275.5  C 2179.58 275.5  2176.5 272.42  2176.5 268.5  C 2176.5 264.58  2179.58 261.5  2183.5 261.5  Z " stroke-width="1" stroke="#797979" fill="none" />
  </g>
</svg>